<?xml version="1.0" standalone="no"?>
<!DOCTYPE svg PUBLIC "-//W3C//DTD SVG 20010904//EN"
 "http://www.w3.org/TR/2001/REC-SVG-20010904/DTD/svg10.dtd">
<svg version="1.0" xmlns="http://www.w3.org/2000/svg"
 width="512.000000pt" height="512.000000pt" viewBox="0 0 512.000000 512.000000"
 preserveAspectRatio="xMidYMid meet">

<g transform="translate(0.000000,512.000000) scale(0.100000,-0.100000)"
fill="#FFFFFF" stroke="none">
<path d="M2972 4635 c-41 -8 -104 -24 -140 -36 -66 -21 -215 -91 -239 -111
-21 -17 -15 -56 12 -74 24 -15 28 -15 94 20 285 147 602 152 892 15 90 -43
110 -49 128 -40 33 18 28 65 -9 91 -53 38 -180 91 -279 117 -120 31 -344 40
-459 18z"/>
<path d="M2986 4434 c-82 -18 -201 -64 -256 -99 -48 -30 -54 -65 -16 -90 23
-15 28 -14 93 19 128 64 201 81 353 81 155 0 218 -14 344 -74 44 -21 88 -36
98 -33 25 6 41 38 33 63 -8 25 -157 99 -250 124 -87 24 -311 29 -399 9z"/>
<path d="M520 4328 c-83 -43 -85 -49 -88 -297 -3 -191 -1 -221 13 -235 21 -20
49 -21 69 0 14 13 16 47 16 219 0 199 0 204 22 219 20 14 126 16 938 16 699 0
919 3 928 12 19 19 14 55 -10 72 -20 14 -125 16 -933 16 l-911 0 -44 -22z"/>
<path d="M3924 4340 c-35 -14 -40 -61 -10 -82 6 -4 151 -8 321 -8 265 0 314
-2 333 -16 l22 -15 0 -383 c0 -284 3 -385 12 -394 19 -19 66 -15 78 8 7 13 10
147 8 409 -3 442 0 423 -88 469 -43 21 -52 22 -350 21 -168 0 -314 -4 -326 -9z"/>
<path d="M3008 4235 c-69 -17 -178 -66 -196 -88 -17 -20 -12 -57 10 -71 13 -8
26 -7 50 3 130 53 168 64 250 68 105 7 188 -8 277 -48 76 -35 106 -37 122 -8
18 34 -3 64 -66 93 -131 62 -314 83 -447 51z"/>
<path d="M720 4128 c-87 -45 -85 -33 -88 -423 l-3 -343 -49 -4 -50 -3 0 122
c0 97 -3 125 -16 137 -21 21 -47 20 -67 -2 -16 -17 -17 -137 -17 -1523 l0
-1504 23 -39 c12 -21 38 -47 57 -57 33 -18 76 -19 865 -19 633 0 834 3 843 12
19 19 15 66 -7 78 -11 5 -79 10 -152 10 l-131 0 6 31 c3 17 6 40 6 50 0 18 25
19 809 19 l809 0 63 -47 64 -48 -390 -5 c-214 -3 -391 -7 -392 -8 -20 -20 -23
-46 -8 -68 l15 -24 438 0 439 0 21 23 c22 23 28 60 16 92 -9 24 -200 165 -237
176 -18 5 -128 9 -245 9 l-213 0 -119 90 c-131 99 -152 110 -211 110 l-39 0 0
90 0 89 908 3 c886 3 908 3 941 23 19 11 43 33 55 48 21 28 21 30 24 1010 1
540 0 992 -3 1004 -8 35 -41 48 -71 28 l-24 -15 0 -626 c0 -412 -4 -632 -10
-645 -11 -19 -36 -19 -1325 -19 l-1315 0 0 50 0 50 1224 0 1223 0 33 23 c68
46 70 59 70 379 l0 288 -25 16 c-23 15 -27 15 -50 0 l-25 -16 0 -276 c0 -171
-4 -283 -10 -295 -10 -19 -35 -19 -1225 -19 l-1215 0 0 538 0 539 -23 43 c-44
83 -18 80 -639 80 l-548 0 0 329 c0 330 0 330 22 345 20 14 116 16 838 16 621
0 819 3 828 12 19 19 14 55 -10 72 -20 14 -116 16 -833 16 l-811 0 -44 -22z
m1102 -885 c17 -15 18 -38 18 -297 l0 -281 -570 -285 c-314 -157 -582 -296
-595 -310 -13 -14 -29 -38 -34 -53 -8 -19 -11 -261 -11 -738 l0 -709 -34 0
c-71 0 -66 -112 -66 1345 0 1181 2 1315 16 1329 14 14 85 16 636 16 564 0 623
-2 640 -17z m18 -748 l0 -55 -479 -239 c-395 -198 -483 -246 -502 -273 l-24
-33 -3 -663 -2 -662 -50 0 -50 0 2 713 3 712 550 277 c303 152 551 277 553
277 1 1 2 -24 2 -54z m0 -1028 c0 -755 -2 -855 -16 -875 l-15 -22 -440 0 -439
0 0 643 c0 499 3 647 13 659 12 17 863 446 885 447 9 1 12 -176 12 -852z
m2750 110 c0 -229 -3 -287 -14 -303 -13 -17 -29 -19 -133 -22 l-118 -4 -185
142 c-102 78 -191 148 -198 154 -10 10 24 41 177 159 l190 146 118 4 c65 1
128 4 141 5 l22 2 0 -283z m-786 264 c-5 -5 -76 -61 -159 -125 l-150 -115
-367 -1 -367 0 -23 42 c-13 22 -40 55 -61 72 -36 29 -45 31 -117 31 -72 0 -81
-2 -117 -31 -21 -17 -48 -50 -61 -72 l-23 -42 -210 0 -209 0 0 125 0 125 937
0 c569 0 933 -4 927 -9z m331 0 c-6 -4 -78 -60 -161 -124 -92 -71 -154 -125
-157 -139 -13 -48 4 -68 162 -189 86 -66 158 -125 159 -130 2 -5 -29 -9 -70
-9 l-73 0 -192 148 c-106 81 -192 152 -192 157 0 6 84 74 186 153 l185 142 81
0 c45 0 77 -4 72 -9z m-1508 -215 c23 -20 28 -32 28 -71 0 -60 -35 -95 -95
-95 -60 0 -95 35 -95 95 0 60 35 95 95 95 27 0 48 -8 67 -24z m-242 -163 c11
-20 37 -50 58 -67 36 -29 45 -31 117 -31 72 0 81 2 117 31 21 17 47 47 58 67
l20 37 376 0 376 0 144 -111 c79 -61 151 -117 159 -125 12 -12 -124 -14 -928
-14 l-942 0 0 125 0 125 213 0 212 0 20 -37z m-25 -403 l0 -90 -39 0 c-59 0
-82 -12 -210 -110 -80 -60 -127 -90 -145 -90 l-26 0 0 190 0 190 210 0 210 0
0 -90z m300 0 l0 -90 -100 0 -100 0 0 90 0 90 100 0 100 0 0 -90z m236 -240
l69 -50 -404 0 -404 0 64 49 64 50 271 0 271 1 69 -50z"/>
<path d="M646 3144 c-21 -21 -20 -47 2 -67 17 -15 69 -17 535 -17 504 0 518 1
537 20 24 24 24 29 4 58 l-15 22 -524 0 c-463 0 -525 -2 -539 -16z"/>
<path d="M646 2944 c-21 -21 -20 -47 2 -67 17 -15 69 -17 535 -17 504 0 518 1
537 20 24 24 24 29 4 58 l-15 22 -524 0 c-463 0 -525 -2 -539 -16z"/>
<path d="M646 2744 c-21 -21 -20 -47 2 -67 17 -15 66 -17 495 -17 516 0 507
-1 507 54 0 46 4 46 -506 46 -425 0 -484 -2 -498 -16z"/>
<path d="M710 2541 c-98 -52 -103 -183 -9 -253 95 -71 240 17 226 139 -6 54
-31 92 -78 115 -44 23 -95 23 -139 -1z m108 -93 c26 -26 0 -88 -36 -88 -22 0
-52 30 -52 51 0 40 60 65 88 37z"/>
<path d="M1273 1842 c-100 -36 -171 -101 -215 -199 -17 -37 -22 -67 -23 -133
0 -77 3 -92 33 -152 63 -129 174 -198 317 -198 107 0 175 28 246 101 74 75
102 144 102 250 1 188 -142 337 -332 346 -56 3 -90 -1 -128 -15z m191 -94 c25
-8 61 -32 93 -63 90 -88 104 -199 39 -307 -45 -76 -107 -112 -201 -116 -58 -3
-80 0 -118 18 -93 44 -155 153 -144 251 20 164 173 264 331 217z"/>
<path d="M1310 1638 c-100 -68 -105 -191 -10 -255 43 -30 119 -31 166 -3 46
29 78 98 69 150 -18 104 -142 164 -225 108z m119 -110 c14 -24 14 -28 -4 -48
-28 -31 -77 -24 -89 12 -21 61 62 93 93 36z"/>
<path d="M1055 1005 c-24 -23 -25 -29 -25 -155 0 -126 1 -132 25 -155 l24 -25
303 0 c222 1 307 4 319 13 32 24 39 56 39 167 0 115 -12 161 -45 174 -9 3
-151 6 -316 6 l-300 0 -24 -25z m585 -155 l0 -80 -255 0 -255 0 0 80 0 80 255
0 255 0 0 -80z"/>
<path d="M3924 4140 c-35 -14 -40 -61 -10 -82 6 -4 106 -8 221 -8 174 0 214
-3 233 -16 22 -15 22 -17 22 -298 0 -206 3 -285 12 -294 19 -19 66 -15 78 8 7
14 10 116 8 309 -3 329 -2 325 -88 369 -42 21 -56 22 -250 21 -113 0 -214 -4
-226 -9z"/>
<path d="M3043 4035 c-29 -8 -71 -24 -93 -35 -32 -16 -40 -26 -40 -48 0 -55
31 -64 107 -31 75 32 184 36 258 9 97 -35 122 -37 136 -7 16 36 7 53 -43 78
-96 49 -221 62 -325 34z"/>
<path d="M2705 3810 c-173 -35 -326 -152 -404 -311 -32 -66 -54 -140 -106
-353 -59 -248 -63 -272 -54 -318 19 -88 104 -157 194 -158 73 0 122 34 220
157 161 200 145 195 632 191 l368 -3 51 -27 c55 -29 87 -61 184 -186 82 -107
114 -127 202 -127 57 0 72 4 110 30 50 35 88 102 88 157 0 67 -126 560 -162
635 -45 93 -167 216 -260 261 -118 58 -158 62 -613 61 -225 -1 -428 -5 -450
-9z m151 -177 c32 -48 70 -93 84 -100 33 -17 408 -18 444 -2 14 7 51 52 83
100 64 98 64 98 156 74 135 -35 257 -134 314 -255 27 -56 153 -539 153 -584 0
-29 -24 -68 -51 -82 -64 -33 -100 -14 -184 97 -85 113 -151 174 -223 207 l-57
27 -385 3 c-331 3 -393 1 -445 -13 -93 -25 -158 -76 -257 -199 -48 -61 -99
-116 -114 -124 -50 -26 -121 6 -138 64 -11 36 118 545 156 617 61 115 177 207
305 242 91 25 93 24 159 -72z m522 37 l-33 -50 -181 0 -182 0 -16 25 c-9 14
-23 36 -32 50 l-16 25 246 0 246 0 -32 -50z"/>
<path d="M2672 3568 c-7 -7 -12 -36 -12 -65 l0 -53 -53 0 c-58 0 -77 -12 -77
-46 0 -37 26 -54 81 -54 l49 0 0 -49 c0 -53 17 -81 49 -81 31 0 51 33 51 83
l0 47 48 0 c35 0 54 5 65 18 38 42 5 82 -66 82 l-47 0 0 48 c0 35 -5 54 -18
65 -22 20 -53 22 -70 5z"/>
<path d="M3592 3544 c-24 -17 -29 -53 -10 -72 27 -27 88 -3 88 34 0 15 -35 54
-48 54 -4 0 -18 -7 -30 -16z"/>
<path d="M3477 3432 c-22 -24 -21 -45 3 -67 41 -37 102 17 73 64 -15 23 -56
25 -76 3z"/>
<path d="M3687 3432 c-22 -24 -21 -45 3 -67 41 -37 102 17 73 64 -15 23 -56
25 -76 3z"/>
<path d="M3592 3334 c-24 -17 -29 -53 -10 -72 27 -27 88 -3 88 34 0 15 -35 54
-48 54 -4 0 -18 -7 -30 -16z"/>
<path d="M3034 3295 c-15 -23 -15 -27 0 -50 16 -24 20 -25 122 -25 121 0 144
8 144 50 0 42 -23 50 -144 50 -102 0 -106 -1 -122 -25z"/>
<path d="M4412 3264 c-24 -17 -29 -53 -10 -72 19 -19 66 -15 78 7 14 28 13 38
-10 61 -24 24 -29 24 -58 4z"/>
<path d="M4412 3014 c-24 -17 -29 -53 -10 -72 19 -19 66 -15 78 7 14 28 13 38
-10 61 -24 24 -29 24 -58 4z"/>
<path d="M2408 559 c-21 -12 -24 -59 -6 -77 7 -7 21 -12 33 -12 12 0 26 5 33
12 19 19 15 66 -7 78 -24 12 -31 12 -53 -1z"/>
<path d="M2658 559 c-21 -12 -24 -59 -6 -77 7 -7 21 -12 33 -12 12 0 26 5 33
12 19 19 15 66 -7 78 -24 12 -31 12 -53 -1z"/>
</g>
</svg>
